<svg xmlns:inkscape="http://www.inkscape.org/namespaces/inkscape" xmlns:sodipodi="http://sodipodi.sourceforge.net/DTD/sodipodi-0.dtd" xmlns="http://www.w3.org/2000/svg" xmlns:svg="http://www.w3.org/2000/svg" xmlns:rdf="http://www.w3.org/1999/02/22-rdf-syntax-ns#" xmlns:cc="http://creativecommons.org/ns#" xmlns:dc="http://purl.org/dc/elements/1.1/" viewBox="-0.8466666500000001 -1.6933334 18.6266663 22.8600009" version="1.1" x="0px" y="0px"><g><path style="color:#000000;" d="m 13.665322,1.4658669 c -0.57825,0.01482 -1.04644,0.493834 -1.04644,1.075902 0,0.266763 0.0987,0.512125 0.26096,0.701249 l -2.19831,3.134694 c -0.11853,-0.0454 -0.2469,-0.0703 -0.38086,-0.0703 -0.27828,0 -0.5326703,0.10764 -0.7239803,0.28319 l -1.83659,-1.21182 c 0.0392,-0.11124 0.0605,-0.23054 0.0605,-0.3545 0,-0.591301 -0.485,-1.075901 -1.0759,-1.075901 -0.59089,0 -1.07435,0.4846 -1.07435,1.075901 0,0.1871 0.0485,0.36374 0.13332,0.5178 l -1.96267,1.83968 c -0.16797,-0.10867 -0.36743,-0.17208 -0.58084,-0.17208 -0.59089,0 -1.07435,0.48511 -1.07435,1.07642 0,0.59131 0.48346,1.07797 1.07435,1.07797 0.59088,0 1.0759,-0.48666 1.0759,-1.07797 0,-0.18732 -0.0485,-0.36387 -0.13384,-0.5178 l 1.96319,-1.83761 c 0.16738,0.10847 0.36643,0.17156 0.57929,0.17156 0.27775,0 0.53182,-0.10725 0.72347,-0.28267 l 1.83762,1.21233 c -0.0384,0.11037 -0.0594,0.22894 -0.0594,0.35192 0,0.59131 0.48346,1.07797 1.0743503,1.07797 0.59089,0 1.07435,-0.48666 1.07435,-1.07797 0,-0.26651 -0.0985,-0.5116 -0.26044,-0.70022 l 2.19676,-3.13469 c 0.11882,0.04585 0.24752,0.07131 0.38189,0.07131 0.59089,0 1.07435,-0.487172 1.07435,-1.078486 0,-0.59131 -0.48346,-1.075902 -1.07435,-1.075902 -0.009,0 -0.0187,-2.35e-4 -0.0279,0 z m 0.0279,0.529167 c 0.30417,0 0.54674,0.240673 0.54674,0.546735 0,0.306067 -0.24257,0.548804 -0.54674,0.548804 -0.30417,0 -0.54519,-0.242734 -0.54519,-0.548804 0,-0.306065 0.24102,-0.546735 0.54519,-0.546735 z m -6.9685703,2.482537 c 0.30418,0 0.54673,0.24067 0.54674,0.546731 0,0.30608 -0.24257,0.54881 -0.54674,0.54881 -0.30417,0 -0.54518,-0.24273 -0.54518,-0.54881 0,-0.306061 0.24101,-0.546731 0.54518,-0.546731 z m 6.2166803,1.929601 a 0.26460944,0.26460944 0 0 0 -0.26562,0.26561 v 8.2656501 h -1.44952 v -4.5527 a 0.26460944,0.26460944 0 0 0 -0.26562,-0.26355 H 9.4567817 a 0.26460944,0.26460944 0 0 0 -0.26561,0.26355 v 4.5527 h -1.44901 V 8.5300319 a 0.26460944,0.26460944 0 0 0 -0.26561,-0.26561 h -1.50431 a 0.26460944,0.26460944 0 0 0 -0.26561,0.26561 v 6.4084001 h -1.44901 v -2.69544 a 0.26460944,0.26460944 0 0 0 -0.26562,-0.26356 h -1.50378 a 0.26460944,0.26460944 0 0 0 -0.26562,0.26356 v 2.69544 h -1.16427 a 0.26458299,0.26458299 0 0 0 -0.26561003,0.26355 0.26458299,0.26458299 0 0 0 0.26561003,0.26561 h 1.42989 1.50378 1.98024 1.50431 1.98023 1.5037903 1.98076 1.50378 1.42989 a 0.26458299,0.26458299 0 0 0 0.26561,-0.26561 0.26458299,0.26458299 0 0 0 -0.26561,-0.26355 h -1.16427 V 6.6727819 a 0.26460944,0.26460944 0 0 0 -0.26562,-0.26561 z m -2.64067,0.42943 c 0.30417,0 0.54467,0.24118 0.54467,0.54725 0,0.30606 -0.2405,0.5488 -0.54467,0.5488 -0.3041703,0 -0.5467303,-0.24274 -0.5467303,-0.5488 0,-0.30607 0.24256,-0.54725 0.5467303,-0.54725 z m 2.90422,0.0997 h 0.97668 v 8.0021001 h -0.97668 z m -9.9647703,0.80305 c 0.30416,0 0.54674,0.24067 0.54674,0.54674 0,0.30606 -0.24258,0.5488 -0.54674,0.5488 -0.30417,0 -0.54519,-0.24274 -0.54519,-0.5488 0,-0.30607 0.24102,-0.54674 0.54519,-0.54674 z m 2.9962,1.05472 h 0.97617 v 6.1443301 h -0.97617 z m 3.48402,1.8572501 h 0.9766903 v 4.28708 H 9.7203317 Z m -6.96856,1.85725 h 0.97668 v 2.42983 h -0.97668 z" fill="#000000" stroke-width="1" stroke-linecap="round" stroke-linejoin="round"/></g><text x="0.0" y="19.89666745" font-size="0.8466667" font-weight="bold" font-family="Arbeit Regular, Helvetica, Arial-Unicode, Arial, Sans-serif" fill="#000000">Created by Larea</text><text x="0.0" y="20.74333415" font-size="0.8466667" font-weight="bold" font-family="Arbeit Regular, Helvetica, Arial-Unicode, Arial, Sans-serif" fill="#000000">from Noun Project</text></svg>