<?xml version="1.0" encoding="UTF-8"?>
<svg version="1.1" xmlns="http://www.w3.org/2000/svg" width="716" height="180">
<path d="M0 0 C236.28 0 472.56 0 716 0 C716 59.4 716 118.8 716 180 C479.72 180 243.44 180 0 180 C0 120.6 0 61.2 0 0 Z M2 2 C2 60.08 2 118.16 2 178 C95.06 178 188.12 178 284 178 C284 119.92 284 61.84 284 2 C190.94 2 97.88 2 2 2 Z " fill="#4949BD" transform="translate(0,0)"/>
<path d="M0 0 C6.21816611 2.10295668 11.78629271 5.04768727 15.29191589 10.77511597 C17.72471306 19.28002324 16.80005421 28.60429029 16.56144714 37.34542847 C16.53717954 39.95425831 16.51868444 42.56314767 16.50570679 45.17205811 C16.46546396 51.31785464 16.35902851 57.46060775 16.22816342 63.60506999 C16.08232893 70.60594565 16.01125151 77.60697485 15.94612277 84.60899377 C15.81061394 98.99932866 15.58229135 113.38711396 15.29191589 127.77511597 C10.71529373 130.06342705 4.31694298 128.96014302 -0.70808411 128.96261597 C-2.01777161 128.97486206 -3.32745911 128.98710815 -4.67683411 128.99972534 C-6.54855286 129.00262573 -6.54855286 129.00262573 -8.45808411 129.00558472 C-9.60792786 129.0096936 -10.75777161 129.01380249 -11.94245911 129.01803589 C-14.70808411 128.77511597 -14.70808411 128.77511597 -16.70808411 126.77511597 C-16.99049282 124.74533844 -16.99049282 124.74533844 -17.03607178 122.1980896 C-17.05760818 121.23375 -17.07914459 120.2694104 -17.10133362 119.27584839 C-17.11456665 118.21406372 -17.12779968 117.15227905 -17.14143372 116.05831909 C-17.16260757 114.94267578 -17.18378143 113.82703247 -17.20559692 112.67758179 C-17.27073535 108.97057297 -17.31828927 105.26370528 -17.36042786 101.55636597 C-17.37481966 100.29090439 -17.38921146 99.02544281 -17.40403938 97.72163391 C-17.46050723 92.39960159 -17.51184037 87.07762894 -17.54590511 81.75540924 C-17.59529482 74.14185881 -17.68779332 66.53158462 -17.83981699 58.91937304 C-17.95568076 52.91251232 -17.99965174 46.90715524 -18.01936531 40.89912415 C-18.03830888 38.35048716 -18.07952631 35.80191227 -18.14370537 33.25401306 C-18.64528745 12.22839064 -18.64528745 12.22839064 -13.7933197 6.96432495 C-10.68813952 4.28608164 -7.4305323 2.46866179 -3.70808411 0.77511597 C-1.70808411 -0.22488403 -1.70808411 -0.22488403 0 0 Z M-7.93634033 11.7887764 C-11.24830122 15.50188608 -10.75476819 19.61193889 -10.61628723 24.37033081 C-10.61745544 25.42459259 -10.61862366 26.47885437 -10.61982727 27.56506348 C-10.61426593 31.04008005 -10.55210028 34.51163871 -10.48933411 37.98605347 C-10.47440879 40.39884567 -10.46302315 42.81166217 -10.45503235 45.2244873 C-10.42452221 51.56760888 -10.3459651 57.90925928 -10.25740051 64.25180054 C-10.17548703 70.72681781 -10.13900887 77.20207339 -10.09870911 83.67745972 C-10.01297286 96.377324 -9.87647648 109.07609753 -9.70808411 121.77511597 C-3.76808411 121.77511597 2.17191589 121.77511597 8.29191589 121.77511597 C8.47726257 107.79751766 8.61941716 93.82021156 8.70641327 79.84163475 C8.7481672 73.35075864 8.8048024 66.8607231 8.89543152 60.37033081 C8.98234544 54.10681525 9.03018847 47.8441082 9.05093384 41.58003616 C9.06571769 39.19011326 9.09458801 36.80023471 9.13775635 34.41065598 C9.19582981 31.06290799 9.20382908 27.71850132 9.20011902 24.37033081 C9.22888123 23.38202271 9.25764343 22.3937146 9.28727722 21.37545776 C9.23636432 16.11665607 9.23636432 16.11665607 6.52017212 11.7887764 C0.51373027 7.1286488 -1.92989849 7.1286488 -7.93634033 11.7887764 Z " fill="#4949BD" transform="translate(234.7080841064453,39.224884033203125)"/>
<path d="M0 0 C4.19919691 1.96126474 7.71622855 4.14291696 11.3125 7.0625 C12.17488281 7.75472656 13.03726563 8.44695312 13.92578125 9.16015625 C16 11 16 11 17 13 C17.10381579 15.88802893 17.14680382 18.75213477 17.14526367 21.640625 C17.14862228 22.53503296 17.1519809 23.42944092 17.15544128 24.35095215 C17.16496636 27.31731543 17.16689506 30.28362237 17.16796875 33.25 C17.17117984 35.30501326 17.17454379 37.36002629 17.17805481 39.41503906 C17.18404969 43.72591685 17.1858943 48.03677458 17.18530273 52.34765625 C17.185201 57.88296699 17.19886355 63.41814979 17.21607494 68.95343018 C17.22716902 73.19808549 17.22922276 77.4427096 17.22869301 81.68737793 C17.22987665 83.72880495 17.23431977 85.77023269 17.24202538 87.81164551 C17.25177472 90.66098111 17.24896753 93.51003529 17.24291992 96.359375 C17.24853943 97.2093103 17.25415894 98.05924561 17.25994873 98.93493652 C17.22831644 104.77168356 17.22831644 104.77168356 15 107 C10.86391547 107.39756452 6.72247431 107.32906622 2.56884766 107.31567383 C0.50760144 107.31251166 -1.5522124 107.33597703 -3.61328125 107.36132812 C-4.90621094 107.36197266 -6.19914063 107.36261719 -7.53125 107.36328125 C-8.72298828 107.36626221 -9.91472656 107.36924316 -11.14257812 107.37231445 C-12.08552734 107.24945068 -13.02847656 107.12658691 -14 107 C-16.58414293 103.12378561 -16.30280478 99.88263959 -16.30639648 95.38525391 C-16.31472 94.50527237 -16.32304352 93.62529083 -16.33161926 92.71864319 C-16.35574901 89.80457151 -16.36449494 86.89072354 -16.37109375 83.9765625 C-16.3800577 81.95258516 -16.3891795 79.92860851 -16.39845276 77.90463257 C-16.41495332 73.65938709 -16.42264484 69.41422058 -16.42553711 65.16894531 C-16.43092251 59.7289798 -16.46860472 54.28975629 -16.51428127 48.85000038 C-16.54402274 44.66868377 -16.55126003 40.48754647 -16.55226326 36.30613327 C-16.55647122 34.30064876 -16.56892849 32.29516399 -16.58978081 30.28978348 C-16.61663519 27.48381227 -16.61188767 24.67956922 -16.59936523 21.87353516 C-16.61419952 21.04530746 -16.62903381 20.21707977 -16.64431763 19.36375427 C-16.59028398 15.11226172 -16.40814289 13.50481186 -13.64344788 10.08529663 C-10.86128981 7.8905778 -8.07613097 5.74086418 -5.1875 3.6875 C-4.21167969 2.99011719 -3.23585937 2.29273438 -2.23046875 1.57421875 C-1.49441406 1.05472656 -0.75835937 0.53523438 0 0 Z M-6.97164917 12.25369263 C-11.51334816 18.40297471 -10.06897381 26.96495866 -9.87890625 34.27734375 C-9.8621066 36.1730293 -9.84930183 38.0687541 -9.84031677 39.9644928 C-9.80605829 44.93857948 -9.71774748 49.91027633 -9.61798096 54.88342285 C-9.52568129 59.96427074 -9.48475961 65.04550735 -9.43945312 70.12695312 C-9.3431155 80.08585096 -9.18489839 90.04235228 -9 100 C-2.73 100 3.54 100 10 100 C10.20354139 89.0383393 10.36856164 78.07793846 10.46630955 67.1148138 C10.51323035 62.02382503 10.57684025 56.93419872 10.67895508 51.84399414 C10.77693373 46.92906432 10.83059608 42.01544249 10.85389519 37.09961128 C10.87049225 35.22678599 10.90290552 33.35403032 10.95157051 31.48176384 C11.59224553 21.32156631 11.59224553 21.32156631 7.97164917 12.25369263 C1.74740533 7.30647371 -0.74740533 7.30647371 -6.97164917 12.25369263 Z " fill="#4848BC" transform="translate(188,61)"/>
<path d="M0 0 C2.36196399 -0.27358656 4.69219756 -0.46861812 7.0625 -0.625 C8.37347656 -0.74101563 9.68445313 -0.85703125 11.03515625 -0.9765625 C13.88009195 -0.70054321 14.80265931 -0.20443125 16.81420898 1.87939453 C18.68551775 4.51715332 20.35473079 7.21584226 22 10 C23.17468363 11.85746544 24.3504611 13.71423957 25.52734375 15.5703125 C26.6671146 17.41999777 27.80383404 19.27156678 28.9375 21.125 C29.52595703 22.08148438 30.11441406 23.03796875 30.72070312 24.0234375 C32.14986674 26.34728078 33.57533137 28.67339829 35 31 C35.33 23.74 35.66 16.48 36 9 C34.35 9 32.7 9 31 9 C31 6.03 31 3.06 31 0 C37.27 0 43.54 0 50 0 C50 2.97 50 5.94 50 9 C48.68 9 47.36 9 46 9 C46 22.53 46 36.06 46 50 C35 50 35 50 32.45361328 48.015625 C31.91462402 47.10296875 31.37563477 46.1903125 30.8203125 45.25 C30.2015625 44.24839844 29.5828125 43.24679688 28.9453125 42.21484375 C28.34460938 41.15394531 27.74390625 40.09304687 27.125 39 C26.50109375 37.97003906 25.8771875 36.94007812 25.234375 35.87890625 C24.06154596 33.9365628 22.90464802 31.98443436 21.77001953 30.01953125 C19.58990422 26.30040488 17.28483051 22.65572882 15 19 C14.67 26.26 14.34 33.52 14 41 C15.65 41 17.3 41 19 41 C19 43.97 19 46.94 19 50 C12.4 50 5.8 50 -1 50 C-1 47.03 -1 44.06 -1 41 C0.65 41 2.3 41 4 41 C4 30.44 4 19.88 4 9 C2.68 9 1.36 9 0 9 C0 6.03 0 3.06 0 0 Z " fill="#F2F5F9" transform="translate(515,66)"/>
<path d="M0 0 C5.92977497 0.01484299 11.72012079 0.03121383 17.55859375 1.1328125 C19.04184393 4.09931285 18.47833532 6.59676765 18.24609375 9.8828125 C18.16746094 11.09453125 18.08882812 12.30625 18.0078125 13.5546875 C17.57642111 16.99081366 16.7733588 19.90004999 15.55859375 23.1328125 C13.90859375 22.8028125 12.25859375 22.4728125 10.55859375 22.1328125 C9.73220999 19.24046935 9.55859375 17.24538819 9.55859375 14.1328125 C8.85065674 14.6904126 8.85065674 14.6904126 8.12841797 15.25927734 C-1.88925378 23.13602676 -11.93350556 30.91763144 -22.44140625 38.1328125 C-23.68108154 38.98649414 -23.68108154 38.98649414 -24.94580078 39.85742188 C-40.71402511 50.66639824 -56.87844264 60.60561072 -73.44140625 70.1328125 C-74.69727539 70.85525146 -74.69727539 70.85525146 -75.97851562 71.59228516 C-81.09212026 74.51636897 -86.25416223 77.34189605 -91.44140625 80.1328125 C-92.323125 80.61250488 -93.20484375 81.09219727 -94.11328125 81.58642578 C-106.90104701 88.51968334 -119.86468407 94.81973366 -133.19140625 100.6328125 C-133.8585968 100.92418091 -134.52578735 101.21554932 -135.2131958 101.51574707 C-141.96278232 104.45299573 -148.74781883 107.30384089 -155.58203125 110.0390625 C-157.09845215 110.64717773 -157.09845215 110.64717773 -158.64550781 111.26757812 C-161.41973214 112.12610511 -163.55930152 112.309564 -166.44140625 112.1328125 C-166.93640625 109.6578125 -166.93640625 109.6578125 -167.44140625 107.1328125 C-161.59501534 104.10835161 -155.68190167 101.55745088 -149.56640625 99.1328125 C-94.55562186 76.89798447 -40.8917686 46.51468926 4.55859375 8.1328125 C1.91859375 7.4728125 -0.72140625 6.8128125 -3.44140625 6.1328125 C-3.48412725 4.46669345 -3.48204457 2.79898365 -3.44140625 1.1328125 C-2.44140625 0.1328125 -2.44140625 0.1328125 0 0 Z " fill="#4949BC" transform="translate(212.44140625,11.8671875)"/>
<path d="M0 0 C3.1875 2 3.1875 2 5 4 C5.5775 3.71125 6.155 3.4225 6.75 3.125 C7.86375 2.568125 7.86375 2.568125 9 2 C9.90685547 1.47986328 9.90685547 1.47986328 10.83203125 0.94921875 C15.58243008 -1.1306856 21.17781206 -0.69785921 25.9375 1.125 C28.98692231 3.8972021 30.7607458 6.92061027 31.23950195 11.08154297 C31.29413789 13.35330027 31.26256117 15.60391845 31.1875 17.875 C31.16719727 19.050625 31.16719727 19.050625 31.14648438 20.25 C31.11141789 22.16696782 31.05762072 24.08357751 31 26 C32.65 26 34.3 26 36 26 C36 28.97 36 31.94 36 35 C30.72 35 25.44 35 20 35 C19.95101562 33.36289063 19.90203125 31.72578125 19.8515625 30.0390625 C19.77654361 27.901024 19.7009954 25.76300402 19.625 23.625 C19.5940625 22.54476562 19.563125 21.46453125 19.53125 20.3515625 C19.47324219 18.8046875 19.47324219 18.8046875 19.4140625 17.2265625 C19.3826416 16.27346191 19.3512207 15.32036133 19.31884766 14.33837891 C19.21444204 11.81104824 19.21444204 11.81104824 17 10 C12.65805064 10.09695116 12.65805064 10.09695116 9 12 C8.76472227 14.34987262 8.58613583 16.70556039 8.4375 19.0625 C8.35371094 20.35285156 8.26992188 21.64320312 8.18359375 22.97265625 C8.09271484 24.47119141 8.09271484 24.47119141 8 26 C9.65 26 11.3 26 13 26 C13 28.97 13 31.94 13 35 C7.72 35 2.44 35 -3 35 C-3.04898437 33.44667969 -3.09796875 31.89335938 -3.1484375 30.29296875 C-3.22346697 28.25779433 -3.29901472 26.22263896 -3.375 24.1875 C-3.4059375 23.16333984 -3.436875 22.13917969 -3.46875 21.08398438 C-3.50742187 20.10107422 -3.54609375 19.11816406 -3.5859375 18.10546875 C-3.63306885 16.74651489 -3.63306885 16.74651489 -3.68115234 15.36010742 C-3.86027919 12.73474608 -3.86027919 12.73474608 -6 10 C-10.05445642 9.56867485 -11.54970958 9.69980639 -15 12 C-15.58687784 15.34613512 -15.58687784 15.34613512 -15.6875 19.125 C-15.75324219 20.40632813 -15.81898438 21.68765625 -15.88671875 23.0078125 C-15.92410156 23.99523437 -15.96148437 24.98265625 -16 26 C-14.02 26 -12.04 26 -10 26 C-10 28.97 -10 31.94 -10 35 C-17.26 35 -24.52 35 -32 35 C-32 32.03 -32 29.06 -32 26 C-30.35 26 -28.7 26 -27 26 C-27 20.72 -27 15.44 -27 10 C-28.65 10 -30.3 10 -32 10 C-32 7.03 -32 4.06 -32 1 C-26.72 1 -21.44 1 -16 1 C-16 1.66 -16 2.32 -16 3 C-15.401875 2.505 -14.80375 2.01 -14.1875 1.5 C-9.50751028 -0.7023481 -5.08959868 -0.72490536 0 0 Z " fill="#F0F2F8" transform="translate(394,81)"/>
<path d="M0 0 C6.6 0 13.2 0 20 0 C20 2.97 20 5.94 20 9 C18.35 9 16.7 9 15 9 C15.05194164 13.06353744 15.14703756 17.12496032 15.25 21.1875 C15.26417969 22.33798828 15.27835937 23.48847656 15.29296875 24.67382812 C15.32519531 25.78564453 15.35742188 26.89746094 15.390625 28.04296875 C15.41157227 29.06414795 15.43251953 30.08532715 15.45410156 31.13745117 C16.1328631 34.69669941 17.50642315 36.41608672 20 39 C22.94493382 39.85917455 24.86132349 39.3985621 28 39 C30.17476401 37.45661909 30.81832637 36.36334727 32 34 C32.15344209 32.11527141 32.24959571 30.22572126 32.31640625 28.3359375 C32.37924805 26.65371094 32.37924805 26.65371094 32.44335938 24.9375 C32.48267578 23.761875 32.52199219 22.58625 32.5625 21.375 C32.62727539 19.59996094 32.62727539 19.59996094 32.69335938 17.7890625 C32.79967426 14.85949672 32.90170642 11.92984412 33 9 C31.02 9 29.04 9 27 9 C27 6.03 27 3.06 27 0 C33.93 0 40.86 0 48 0 C48 2.97 48 5.94 48 9 C46.68 9 45.36 9 44 9 C44.01571045 9.64960693 44.0314209 10.29921387 44.04760742 10.96850586 C44.11059337 13.95807931 44.14919021 16.94751249 44.1875 19.9375 C44.21263672 20.95908203 44.23777344 21.98066406 44.26367188 23.03320312 C44.35022937 32.06403477 43.08701184 39.7813995 36.734375 46.55859375 C32.76111987 49.86069092 28.53502462 50.80812192 23.5 51.4375 C16.39884609 50.54985576 11.79550872 47.36230357 7.2265625 41.9765625 C4.4572324 37.51388405 3.75130306 33.12360319 3.8046875 27.9453125 C3.81113281 26.83671875 3.81757813 25.728125 3.82421875 24.5859375 C3.84097656 23.44382812 3.85773438 22.30171875 3.875 21.125 C3.88402344 19.9596875 3.89304687 18.794375 3.90234375 17.59375 C3.92582568 14.72895423 3.95866859 11.86458465 4 9 C2.68 9 1.36 9 0 9 C0 6.03 0 3.06 0 0 Z " fill="#EFF2F8" transform="translate(310,66)"/>
<path d="M0 0 C8.28580175 5.33513475 8.28580175 5.33513475 9.9972229 10.76338196 C10.35257511 14.84310503 10.33793072 18.76023646 10.1725769 22.84446716 C10.15523751 24.32891951 10.14296344 25.8134388 10.13549805 27.29797363 C10.10124347 31.18097928 9.99331415 35.05859568 9.87094116 38.93968201 C9.78331336 42.11778068 9.74856471 45.29545085 9.71639824 48.4745245 C9.6772604 52.26481403 9.61617853 56.0546068 9.5475769 59.84446716 C9.5347253 60.56738386 9.5218737 61.29030056 9.50863266 62.03512383 C9.46676903 64.07202536 9.40774597 66.10855264 9.34786987 68.14500427 C9.31611664 69.30366501 9.2843634 70.46232574 9.25164795 71.65609741 C8.9303894 74.37962341 8.9303894 74.37962341 6.9303894 76.37962341 C4.1647644 76.63841248 4.1647644 76.63841248 0.6803894 76.64524841 C-1.19132935 76.6491156 -1.19132935 76.6491156 -3.1008606 76.65306091 C-5.06539185 76.64145935 -5.06539185 76.64145935 -7.0696106 76.62962341 C-8.3792981 76.63735779 -9.6889856 76.64509216 -11.0383606 76.65306091 C-12.2861731 76.65048279 -13.5339856 76.64790466 -14.8196106 76.64524841 C-16.54437622 76.64186462 -16.54437622 76.64186462 -18.3039856 76.63841248 C-21.0696106 76.37962341 -21.0696106 76.37962341 -23.0696106 74.37962341 C-23.41105652 71.66955566 -23.41105652 71.66955566 -23.53469849 68.17674255 C-23.5829628 66.87100784 -23.63122711 65.56527313 -23.68095398 64.2199707 C-23.84659474 58.21655684 -23.95983828 52.21255614 -24.04446411 46.20750427 C-24.0933268 43.04415185 -24.18350117 39.88622104 -24.31106567 36.7250824 C-25.39790889 9.16447785 -25.39790889 9.16447785 -19.83084106 2.72679138 C-12.8403045 -3.34556111 -8.19700145 -4.32700788 0 0 Z M-14.30569458 8.2117157 C-17.94192293 12.68075358 -17.03080699 18.38243644 -16.8508606 23.87181091 C-16.83954102 25.17288788 -16.82822144 26.47396484 -16.81655884 27.81446838 C-16.78614705 31.25817402 -16.70769425 34.6991397 -16.618927 38.14176941 C-16.53678928 41.66078117 -16.50048881 45.18023996 -16.4602356 48.69993591 C-16.37467623 55.59439791 -16.23407668 62.48659668 -16.0696106 69.37962341 C-10.1296106 69.37962341 -4.1896106 69.37962341 1.9303894 69.37962341 C2.11145516 61.79087914 2.25807892 54.20294398 2.34488678 46.61256218 C2.38656205 43.08748221 2.44303497 39.56396188 2.53390503 36.03977966 C2.63783137 31.98364212 2.67634007 27.92913036 2.7116394 23.87181091 C2.75292969 22.61222565 2.79421997 21.35264038 2.83676147 20.05488586 C2.98711889 13.67516655 2.98711889 13.67516655 0.16647339 8.2117157 C-5.64874037 3.70109621 -8.49048082 3.70109621 -14.30569458 8.2117157 Z " fill="#4848BC" transform="translate(150.06961059570313,91.62037658691406)"/>
<path d="M0 0 C4.64971027 2.62469626 8.04883596 5.9320355 9.58984375 11.1171875 C10.37602802 17.32533227 10.33148896 22.8788842 6.58984375 28.1171875 C2.22303178 32.49623143 -1.95632631 35.39350514 -8.22265625 35.4921875 C-14.07122108 35.35457421 -17.68505766 33.82812973 -21.9140625 29.62109375 C-26.30822244 24.6009851 -26.82678708 20.42667684 -26.75 13.9765625 C-26.02764036 7.89877798 -22.96872438 4.38948801 -18.34765625 0.6171875 C-12.72798835 -2.11902635 -5.81255153 -2.12907074 0 0 Z " fill="#F0F3F8" transform="translate(596.41015625,81.8828125)"/>
<path d="M0 0 C2.41749502 1.55246718 4.54040961 3.07257009 6.75 4.875 C7.33910156 5.33519531 7.92820312 5.79539062 8.53515625 6.26953125 C12.84308036 9.68616071 12.84308036 9.68616071 14 12 C14.11152301 15.02724045 14.16412715 18.03077097 14.16796875 21.05859375 C14.17296135 22.40873314 14.17296135 22.40873314 14.17805481 23.78614807 C14.18312245 25.69181812 14.18546319 27.59749705 14.18530273 29.50317383 C14.18748853 32.42218616 14.20564399 35.34082024 14.22460938 38.25976562 C14.22754343 40.1093737 14.22952815 41.95898358 14.23046875 43.80859375 C14.23765427 44.68366074 14.24483978 45.55872772 14.25224304 46.46031189 C14.24916641 47.27448074 14.24608978 48.0886496 14.24291992 48.92749023 C14.24434494 49.64315659 14.24576996 50.35882294 14.24723816 51.09617615 C14 53 14 53 12 56 C9.14257812 56.38818359 9.14257812 56.38818359 5.53125 56.3984375 C4.23832031 56.40230469 2.94539063 56.40617187 1.61328125 56.41015625 C0.93861816 56.40387207 0.26395508 56.39758789 -0.43115234 56.39111328 C-2.49253583 56.37505813 -4.5519589 56.39095597 -6.61328125 56.41015625 C-8.55267578 56.40435547 -8.55267578 56.40435547 -10.53125 56.3984375 C-11.72298828 56.39505371 -12.91472656 56.39166992 -14.14257812 56.38818359 C-15.08552734 56.26008301 -16.02847656 56.13198242 -17 56 C-19.0119254 52.9821119 -19.25538856 52.36267076 -19.30639648 48.97509766 C-19.32238388 48.17061188 -19.33837128 47.3661261 -19.35484314 46.53726196 C-19.36020584 45.67160614 -19.36556854 44.80595032 -19.37109375 43.9140625 C-19.38012222 43.02012787 -19.3891507 42.12619324 -19.39845276 41.20516968 C-19.41295977 39.31389721 -19.42184312 37.4225745 -19.42553711 35.53125 C-19.43742852 32.64236554 -19.48660368 29.75562075 -19.53710938 26.8671875 C-19.54657436 25.02865625 -19.55380904 23.19011189 -19.55859375 21.3515625 C-19.57812607 20.48995514 -19.59765839 19.62834778 -19.61778259 18.7406311 C-19.5847428 14.3330077 -19.46865119 12.57951285 -16.60766602 9.04174805 C-15.74713623 8.36797119 -14.88660645 7.69419434 -14 7 C-13.2471875 6.33355469 -12.494375 5.66710937 -11.71875 4.98046875 C-10.9865625 4.38878906 -10.254375 3.79710938 -9.5 3.1875 C-8.7678125 2.58292969 -8.035625 1.97835937 -7.28125 1.35546875 C-4.43974469 -0.33289143 -3.25666321 -0.62146384 0 0 Z M-9.99169922 11.31689453 C-14.28451736 17.05213296 -12.88697183 25.09502167 -12.5625 31.9375 C-12.51731068 33.59168813 -12.47625383 35.24599462 -12.43945312 36.90039062 C-12.34835885 40.9389035 -12.17246559 44.96089844 -12 49 C-5.73 49 0.54 49 7 49 C7.20756957 44.13877184 7.3862303 39.29305237 7.49438477 34.4309082 C7.53946707 32.78063749 7.60075755 31.1307228 7.67895508 29.48168945 C8.43078091 19.88584053 8.43078091 19.88584053 4.99169922 11.31689453 C-1.34860173 6.33083262 -3.65139827 6.33083262 -9.99169922 11.31689453 Z " fill="#4848BC" transform="translate(100,112)"/>
<path d="M0 0 C2.92406646 2.11994818 4.57082477 3.73230426 6.5 6.8125 C6.97780595 9.93462681 6.87923888 12.97604509 6.75 16.125 C6.73195313 16.96095703 6.71390625 17.79691406 6.6953125 18.65820312 C6.64841126 20.71013228 6.57667411 22.76146756 6.5 24.8125 C8.15 24.8125 9.8 24.8125 11.5 24.8125 C11.5 27.7825 11.5 30.7525 11.5 33.8125 C10.30761719 33.80089844 9.11523438 33.78929687 7.88671875 33.77734375 C6.32031406 33.76796408 4.75390769 33.75886407 3.1875 33.75 C2.00897461 33.73743164 2.00897461 33.73743164 0.80664062 33.72460938 C-0.3293457 33.71977539 -0.3293457 33.71977539 -1.48828125 33.71484375 C-2.53302612 33.70698853 -2.53302612 33.70698853 -3.59887695 33.69897461 C-5.72497968 33.74354009 -5.72497968 33.74354009 -8.5 34.8125 C-13.29566077 35.20558695 -15.56907584 35.29520142 -19.875 33.0625 C-23.6375095 29.83749186 -24.33945155 28.28419415 -24.875 23.375 C-24.43178742 19.16448049 -23.54959272 17.69724987 -20.5 14.8125 C-16.62116243 12.86634712 -13.49769274 12.59277049 -9.1875 12.6875 C-8.11886719 12.70554687 -7.05023438 12.72359375 -5.94921875 12.7421875 C-5.14097656 12.76539062 -4.33273437 12.78859375 -3.5 12.8125 C-4.16 11.4925 -4.82 10.1725 -5.5 8.8125 C-7.24991334 8.78534617 -8.99994945 8.76603449 -10.75 8.75 C-11.72453125 8.73839844 -12.6990625 8.72679688 -13.703125 8.71484375 C-16.15758678 8.80054423 -18.16168914 9.10543934 -20.5 9.8125 C-21.79024129 7.6873967 -22.5 6.25904501 -22.5 3.75 C-18.66959055 -3.67141832 -6.62174118 -2.24666219 0 0 Z " fill="#F0F3F8" transform="translate(458.5,82.1875)"/>
<path d="M0 0 C3.66703977 3.57053872 5.54013133 6.35410038 5.66796875 11.51953125 C5.64819925 13.05496273 5.61267168 14.5902611 5.5625 16.125 C5.54219727 17.30739258 5.54219727 17.30739258 5.52148438 18.51367188 C5.48633456 20.44691169 5.43253361 22.37979682 5.375 24.3125 C6.695 24.3125 8.015 24.3125 9.375 24.3125 C9.375 27.2825 9.375 30.2525 9.375 33.3125 C8.17101562 33.30089844 6.96703125 33.28929687 5.7265625 33.27734375 C4.15104321 33.26796566 2.57552225 33.25886548 1 33.25 C-0.19109375 33.23743164 -0.19109375 33.23743164 -1.40625 33.22460938 C-5.64892222 33.08209849 -5.64892222 33.08209849 -9.625 34.3125 C-15.72965114 34.82122093 -18.74452826 34.37955978 -23.625 30.3125 C-26.29933178 26.30100232 -26.44402411 23.02809339 -25.625 18.3125 C-22.94975539 14.74550718 -20.95918723 13.08477336 -16.625 12.3125 C-14.91854998 12.22212726 -13.20883377 12.182399 -11.5 12.1875 C-10.19675781 12.18363281 -10.19675781 12.18363281 -8.8671875 12.1796875 C-6.625 12.3125 -6.625 12.3125 -4.625 13.3125 C-4.97286708 11.33713255 -4.97286708 11.33713255 -5.625 9.3125 C-10.22043291 7.01478355 -16.79747654 8.06668749 -21.625 9.3125 C-24.625 4.5625 -24.625 4.5625 -24.625 2.3125 C-16.96982061 -2.49074981 -8.41419538 -3.91695302 0 0 Z " fill="#F0F3F8" transform="translate(678.625,82.6875)"/>
<path d="M0 0 C5.94 0 11.88 0 18 0 C18 2.97 18 5.94 18 9 C16.68 9 15.36 9 14 9 C15.65 12.96 17.3 16.92 19 21 C20.65 17.04 22.3 13.08 24 9 C23.01 9 22.02 9 21 9 C21 6.03 21 3.06 21 0 C26.94 0 32.88 0 39 0 C39 2.97 39 5.94 39 9 C38.22495117 9.05994141 37.44990234 9.11988281 36.65136719 9.18164062 C33.83014407 9.73559062 33.83014407 9.73559062 32.62207031 12.20898438 C32.27756836 13.16095703 31.93306641 14.11292969 31.578125 15.09375 C30.99998047 16.63869141 30.99998047 16.63869141 30.41015625 18.21484375 C30.02730469 19.29894531 29.64445313 20.38304688 29.25 21.5 C28.46518382 23.63602074 27.6788103 25.77147016 26.890625 27.90625 C26.55063477 28.85822266 26.21064453 29.81019531 25.86035156 30.79101562 C25 33 25 33 24 34 C22.31391034 34.07205511 20.62499341 34.08386068 18.9375 34.0625 C18.01839844 34.05347656 17.09929688 34.04445312 16.15234375 34.03515625 C15.44207031 34.02355469 14.73179687 34.01195312 14 34 C10.68771368 26.96667713 7.81227445 19.91845426 5.30859375 12.5546875 C4.87675781 11.71164063 4.44492187 10.86859375 4 10 C2.68 9.67 1.36 9.34 0 9 C0 6.03 0 3.06 0 0 Z " fill="#F1F4F8" transform="translate(610,82)"/>
<path d="M0 0 C4.95 0 9.9 0 15 0 C15 0.66 15 1.32 15 2 C15.99 1.34 16.98 0.68 18 0 C21.35546875 -0.1953125 21.35546875 -0.1953125 25.1875 -0.125 C26.45980469 -0.10695313 27.73210937 -0.08890625 29.04296875 -0.0703125 C30.50669922 -0.03550781 30.50669922 -0.03550781 32 0 C32 3.96 32 7.92 32 12 C28.7 12 25.4 12 22 12 C22 11.01 22 10.02 22 9 C20.35 9.66 18.7 10.32 17 11 C16.67 15.62 16.34 20.24 16 25 C18.31 25 20.62 25 23 25 C23 27.97 23 30.94 23 34 C15.41 34 7.82 34 0 34 C0 31.03 0 28.06 0 25 C1.98 25 3.96 25 6 25 C6 19.72 6 14.44 6 9 C4.02 9 2.04 9 0 9 C0 6.03 0 3.06 0 0 Z " fill="#F0F3F8" transform="translate(476,82)"/>
<path d="M0 0 C3.24022434 1.39906958 5.92378356 3.32710636 8.68359375 5.48828125 C9.225 5.89626953 9.76640625 6.30425781 10.32421875 6.72460938 C14.28983425 9.76326225 14.28983425 9.76326225 15.43359375 12.05078125 C15.55773373 14.72989524 15.61875182 17.37161224 15.62109375 20.05078125 C15.63333984 20.788125 15.64558594 21.52546875 15.65820312 22.28515625 C15.6634677 24.20848183 15.55562822 26.13132388 15.43359375 28.05078125 C13.43359375 30.05078125 13.43359375 30.05078125 10.54443359 30.27783203 C9.33996582 30.2673584 8.13549805 30.25688477 6.89453125 30.24609375 C4.94160156 30.23642578 4.94160156 30.23642578 2.94921875 30.2265625 C1.5690078 30.20985054 0.18879946 30.19292064 -1.19140625 30.17578125 C-2.57942077 30.16575131 -3.96744214 30.15662548 -5.35546875 30.1484375 C-8.75928651 30.12479988 -12.16276131 30.09184992 -15.56640625 30.05078125 C-18.22881474 24.72596426 -18.28754229 16.71160536 -16.56640625 11.05078125 C-13.10242322 6.00076837 -6.28745415 0.12440929 0 0 Z M-5.69140625 10.48828125 C-6.41585937 10.94074219 -7.1403125 11.39320313 -7.88671875 11.859375 C-10.47891991 14.78111178 -10.47891991 14.78111178 -9.56640625 23.05078125 C-3.62640625 23.05078125 2.31359375 23.05078125 8.43359375 23.05078125 C9.34610741 14.78111178 9.34610741 14.78111178 6.75390625 11.859375 C5.66722656 11.18068359 5.66722656 11.18068359 4.55859375 10.48828125 C3.47964844 9.77478516 3.47964844 9.77478516 2.37890625 9.046875 C-1.08850965 7.27139096 -2.61571718 8.45435784 -5.69140625 10.48828125 Z " fill="#4949BD" transform="translate(52.56640625,137.94921875)"/>
<path d="M0 0 C2.9375 2.0625 2.9375 2.0625 5 5 C5.66896642 9.16245773 5.45194465 11.20040562 3.375 14.875 C0.41671441 17.52188711 -1.02466977 18.15901321 -5 18 C-9.26671943 15.62960032 -9.26671943 15.62960032 -11 13 C-12.01750032 8.66020699 -11.76304019 5.25138592 -9.4375 1.4375 C-6.00082919 -0.58925458 -3.92582814 -0.6198676 0 0 Z " fill="#4C4CBE" transform="translate(591,90)"/>
<path d="M0 0 C1.37478516 0.01740234 1.37478516 0.01740234 2.77734375 0.03515625 C3.69644531 0.04417969 4.61554687 0.05320312 5.5625 0.0625 C6.27277344 0.07410156 6.98304688 0.08570312 7.71484375 0.09765625 C7.71484375 1.74765625 7.71484375 3.39765625 7.71484375 5.09765625 C4.32019929 7.18666822 1.66642846 7.44127231 -2.28515625 7.09765625 C-2.94515625 6.43765625 -3.60515625 5.77765625 -4.28515625 5.09765625 C-3.53567763 0.15109733 -3.53567763 0.15109733 0 0 Z " fill="#4E4EBE" transform="translate(666.28515625,101.90234375)"/>
<path d="M0 0 C1.37478516 0.01740234 1.37478516 0.01740234 2.77734375 0.03515625 C3.69644531 0.04417969 4.61554688 0.05320312 5.5625 0.0625 C6.27277344 0.07410156 6.98304688 0.08570312 7.71484375 0.09765625 C7.71484375 1.74765625 7.71484375 3.39765625 7.71484375 5.09765625 C4.32019929 7.18666822 1.66642846 7.44127231 -2.28515625 7.09765625 C-2.94515625 6.43765625 -3.60515625 5.77765625 -4.28515625 5.09765625 C-3.53567763 0.15109733 -3.53567763 0.15109733 0 0 Z " fill="#5050BF" transform="translate(447.28515625,101.90234375)"/>
</svg>
